<svg class="block size-full" fill="none" preserveAspectRatio="none" viewBox="0 0 56 43"><g clip-path="url(#clip0_43_84)" id="Grupo 144"><g id="Grupo 141"><path d="M3.85954 30.5118C3.54531 30.2081 3.37093 29.8522 3.37474 28.9442L3.37722 23.702C3.3701 23.2773 3.59578 22.9256 3.98068 22.8419C5.94537 22.4994 8.04339 23.1964 9.53611 24.6393C11.0091 26.0631 11.7804 28.2523 11.5415 30.1109C11.5252 30.3297 11.4251 30.5338 11.262 30.6805C11.099 30.8273 10.8855 30.9054 10.6662 30.8985L5.45067 30.9103C4.48472 30.9263 4.17377 30.8156 3.85954 30.5118Z" fill="var(--fill-0, #8044F3)" id="Caminho 220"></path><path d="M3.2972 18.7137L3.26012 15.4283C3.27091 14.9587 3.54643 14.5973 3.99639 14.5521C7.89447 14.1104 12.3724 15.7431 15.5986 18.8616C18.8057 21.9616 20.627 26.2434 20.2983 30.1354C20.2989 30.2426 20.2775 30.3488 20.2352 30.4474C20.193 30.546 20.131 30.6348 20.0529 30.7083C19.9749 30.7818 19.8825 30.8385 19.7816 30.8748C19.6807 30.9111 19.5734 30.9262 19.4664 30.9192L16.1913 30.9176C15.5903 30.9278 15.2088 30.5591 15.2165 29.9395C15.255 28.547 14.9963 27.1622 14.4576 25.8774C13.9189 24.5927 13.1127 23.4375 12.0926 22.4887C10.1059 20.4946 7.12184 19.4566 4.34587 19.6535C3.67079 19.7023 3.30731 19.3144 3.2972 18.7137Z" fill="var(--fill-0, #8044F3)" id="Caminho 221"></path><path d="M3.37863 9.34322L3.36615 6.34841C3.35768 5.84937 3.63935 5.47976 4.13654 5.39426C10.1151 4.67874 17.0071 7.65989 21.9845 12.4711C26.9424 17.2635 30.1221 24.018 29.6095 30.017C29.5608 30.5361 29.2011 30.8304 28.702 30.8387L25.7272 30.9084C25.1516 30.9182 24.7228 30.5415 24.7129 29.9657C24.8523 24.5875 22.7142 19.6512 18.7323 15.8022C14.7503 11.9532 9.76456 10.0412 4.41245 10.3047C3.77942 10.3347 3.33053 9.90079 3.37863 9.34322Z" fill="var(--fill-0, #FFBE0C)" id="Caminho 222"></path><path d="M51.5362 5.55138C51.8504 5.85512 52.0248 6.21107 52.021 7.11905L52.0184 12.3612C52.0256 12.7858 51.7998 13.1376 51.415 13.2212C49.4503 13.5637 47.3523 12.8668 45.8596 11.424C44.3866 10.0001 43.6153 7.81082 43.8542 5.95222C43.8704 5.73344 43.9705 5.52938 44.1336 5.38263C44.2967 5.23589 44.5102 5.15779 44.7294 5.16463L49.945 5.15281C50.9109 5.13687 51.2219 5.24755 51.5362 5.55138Z" fill="var(--fill-0, #F70368)" id="Caminho 314"></path><path d="M52.0984 17.3495L52.1355 20.6348C52.1247 21.1045 51.8492 21.4659 51.3993 21.511C47.5012 21.9528 43.0233 20.3201 39.797 17.2015C36.59 14.1015 34.7691 9.82014 35.0974 5.92776C35.0967 5.82053 35.1182 5.71432 35.1604 5.61575C35.2026 5.51718 35.2647 5.42836 35.3427 5.35483C35.4208 5.28129 35.5131 5.22461 35.614 5.18833C35.7149 5.15204 35.8222 5.13692 35.9292 5.14391L39.2044 5.14553C39.8054 5.13533 40.1869 5.50406 40.1792 6.12362C40.1407 7.51619 40.3994 8.90097 40.9381 10.1857C41.4767 11.4705 42.283 12.6257 43.3031 13.5744C45.2898 15.5686 48.2741 16.607 51.0499 16.4097C51.7249 16.3608 52.0883 16.7487 52.0984 17.3495Z" fill="var(--fill-0, #F70368)" id="Caminho 315"></path><path d="M52.017 26.7204L52.0295 29.7152C52.038 30.2143 51.7563 30.5839 51.2591 30.6694C45.2806 31.3849 38.3886 28.4038 33.4112 23.5926C28.4532 18.8001 25.2735 12.0457 25.7862 6.04674C25.835 5.5276 26.1946 5.23337 26.6937 5.22499L29.6685 5.15537C30.2442 5.14551 30.673 5.52218 30.6828 6.09799C30.5434 11.4762 32.6815 16.4124 36.6634 20.2614C40.6453 24.1104 45.6311 26.0225 50.9832 25.7589C51.6158 25.7294 52.0651 26.1628 52.017 26.7204Z" fill="var(--fill-0, #FFBE0C)" id="Caminho 316"></path></g><path d="p158c84f0M46.2373 41.4294C46.2061 41.4033 46.1852 41.367 46.1783 41.3269C46.1713 41.2868 46.1789 41.2455 46.1995 41.2104L46.7463 40.2811C46.7585 40.2601 46.7753 40.242 46.7953 40.2281C46.8153 40.2142 46.8381 40.2048 46.8621 40.2006C46.8861 40.1964 46.9107 40.1975 46.9342 40.2038C46.9578 40.2102 46.9796 40.2215 46.9983 40.2372C47.4275 40.5978 48.1403 40.8307 48.8145 40.8307C49.8075 40.8307 50.2709 40.4218 50.3041 39.5084C49.8466 39.8406 49.2918 40.0118 48.7266 39.9951C47.1015 39.9951 45.9219 38.8465 45.9219 37.2645C45.9219 35.693 47.1014 34.5531 48.7266 34.5531C49.3172 34.5319 49.8966 34.7178 50.3647 35.0785V34.7822C50.3645 34.76 50.3688 34.7379 50.3772 34.7173C50.3856 34.6967 50.3979 34.678 50.4136 34.6622C50.4292 34.6463 50.4478 34.6338 50.4683 34.6251C50.4888 34.6165 50.5108 34.612 50.533 34.6118H51.695C51.7172 34.612 51.7392 34.6165 51.7597 34.6251C51.7802 34.6338 51.7988 34.6463 51.8145 34.6622C51.8301 34.678 51.8424 34.6967 51.8508 34.7173C51.8592 34.7379 51.8635 34.76 51.8633 34.7822V39.2608C51.8633 41.224 50.8606 42.2194 48.8829 42.2194C47.8223 42.2195 46.8333 41.9241 46.2373 41.4294ZM47.4888 37.2637C47.4888 38.0539 48.0741 38.606 48.912 38.606C49.7442 38.606 50.3255 38.054 50.3255 37.2637C50.3255 36.4851 49.7442 35.9412 48.912 35.9412C48.0607 35.9412 47.4888 36.4727 47.4888 37.2637ZM40.2194 38.5489C40.2194 37.8982 40.5229 36.8064 42.5554 36.8064H43.7319C43.6972 36.2189 43.3182 35.9214 42.6042 35.9214C42.0724 35.9146 41.5535 36.0853 41.1295 36.4065C41.1104 36.4225 41.0879 36.434 41.0637 36.4401C41.0395 36.4463 41.0142 36.447 40.9897 36.4421C40.9653 36.4373 40.9422 36.427 40.9222 36.4121C40.9021 36.3972 40.8857 36.378 40.8741 36.3559L40.3957 35.4563C40.3768 35.4207 40.3709 35.3796 40.3792 35.3402C40.3875 35.3007 40.4094 35.2655 40.4411 35.2405C41.0087 34.7968 41.8289 34.5524 42.7507 34.5524C44.3894 34.5524 45.2918 35.41 45.2918 36.9673V40.0617C45.2919 40.084 45.2877 40.106 45.2793 40.1266C45.2709 40.1472 45.2585 40.166 45.2429 40.1818C45.2273 40.1976 45.2087 40.2102 45.1882 40.2189C45.1677 40.2275 45.1457 40.232 45.1234 40.2322H43.9713C43.949 40.232 43.927 40.2275 43.9065 40.2189C43.886 40.2102 43.8674 40.1976 43.8518 40.1818C43.8361 40.166 43.8238 40.1472 43.8154 40.1266C43.807 40.106 43.8028 40.084 43.8029 40.0617V39.8569C43.4486 40.1461 42.9418 40.3015 42.3308 40.3015C41.068 40.3013 40.2194 39.5971 40.2194 38.5489ZM41.7571 38.4995C41.7571 38.8508 42.0662 39.0607 42.5847 39.0607C43.1318 39.0607 43.5592 38.806 43.7345 38.378V37.968H42.6433C41.7571 37.968 41.7571 38.3404 41.7571 38.4995ZM29.8399 37.4219C29.8399 35.7591 31.0441 34.5522 32.7033 34.5522C34.3547 34.5522 35.508 35.7444 35.508 37.4515C35.508 37.5545 35.4981 37.7082 35.488 37.8315C35.4847 37.8738 35.4657 37.9133 35.4347 37.9423C35.4037 37.9713 35.3629 37.9875 35.3205 37.9878H31.447C31.6444 38.5709 32.1797 38.9124 32.918 38.9124C33.1587 38.9232 33.3989 38.8822 33.6224 38.7922C33.8458 38.7022 34.0474 38.5652 34.2133 38.3905C34.2295 38.3737 34.249 38.3605 34.2706 38.3517C34.2921 38.3429 34.3153 38.3386 34.3386 38.3393C34.3619 38.34 34.3848 38.3455 34.4059 38.3555C34.4269 38.3656 34.4457 38.3799 34.4609 38.3976L35.1151 39.1588C35.1414 39.1896 35.1561 39.2288 35.1564 39.2693C35.1567 39.3099 35.1427 39.3492 35.1169 39.3805C34.6159 39.9829 33.8454 40.3013 32.8885 40.3013C31.0936 40.3013 29.8399 39.1173 29.8399 37.4219ZM31.428 36.8263H33.9731C33.8211 36.2466 33.3405 35.8819 32.7028 35.8819C32.4147 35.8715 32.1317 35.9594 31.9001 36.131C31.6685 36.3025 31.502 36.5477 31.428 36.8263ZM18.6207 37.4219C18.6207 35.7591 19.8572 34.5522 21.5621 34.5522C23.2721 34.5522 24.5133 35.759 24.5133 37.4219C24.5133 39.0903 23.2721 40.3013 21.5621 40.3013C19.8577 40.3013 18.6207 39.0903 18.6207 37.4219ZM20.1877 37.4219C20.1877 38.3075 20.74 38.9031 21.5621 38.9031C22.39 38.9031 22.9462 38.308 22.9462 37.4219C22.9462 36.5357 22.3899 35.9406 21.5621 35.9406C20.74 35.9412 20.1877 36.5362 20.1877 37.4219ZM12.5375 37.4219C12.5375 35.7591 13.7741 34.5522 15.479 34.5522C17.189 34.5522 18.4302 35.759 18.4302 37.4219C18.4302 39.0903 17.189 40.3013 15.479 40.3013C13.7745 40.3013 12.5375 39.0903 12.5375 37.4219ZM14.1046 37.4219C14.1046 38.3075 14.6569 38.9031 15.479 38.9031C16.3069 38.9031 16.8631 38.308 16.8631 37.4219C16.8631 36.5357 16.3068 35.9406 15.479 35.9406C14.6568 35.9412 14.1046 36.5362 14.1046 37.4219ZM36.8726 40.2322C36.8504 40.232 36.8284 40.2275 36.8079 40.2189C36.7874 40.2102 36.7688 40.1976 36.7531 40.1818C36.7375 40.166 36.7252 40.1472 36.7168 40.1266C36.7084 40.106 36.7041 40.084 36.7043 40.0617V34.3988H34.6073C34.5851 34.3986 34.5631 34.3941 34.5426 34.3855C34.5221 34.3769 34.5035 34.3643 34.4878 34.3484C34.4722 34.3326 34.4598 34.3139 34.4515 34.2933C34.4431 34.2727 34.4388 34.2506 34.439 34.2284V33.1407C34.4388 33.1185 34.4431 33.0964 34.4515 33.0758C34.4598 33.0552 34.4722 33.0365 34.4878 33.0207C34.5035 33.0048 34.5221 32.9922 34.5426 32.9836C34.5631 32.975 34.5851 32.9705 34.6073 32.9703H40.4073C40.4296 32.9705 40.4516 32.975 40.4721 32.9836C40.4926 32.9922 40.5112 33.0048 40.5268 33.0207C40.5424 33.0365 40.5548 33.0552 40.5632 33.0758C40.5716 33.0964 40.5758 33.1185 40.5757 33.1407V34.2284C40.5758 34.2506 40.5716 34.2727 40.5632 34.2933C40.5548 34.3139 40.5424 34.3326 40.5268 34.3484C40.5112 34.3643 40.4926 34.3769 40.4721 34.3855C40.4516 34.3941 40.4296 34.3986 40.4073 34.3988H38.3104V40.0617C38.3105 40.084 38.3062 40.106 38.2979 40.1266C38.2895 40.1472 38.2771 40.166 38.2615 40.1818C38.2458 40.1976 38.2272 40.2102 38.2067 40.2189C38.1862 40.2275 38.1642 40.232 38.142 40.2322H36.8726ZM26.5424 40.2322C26.5093 40.232 26.4771 40.2222 26.4496 40.2039C26.4221 40.1856 26.4006 40.1596 26.3878 40.1291L24.1517 34.8495C24.1407 34.8235 24.1363 34.7953 24.1388 34.7672C24.1412 34.7391 24.1506 34.7121 24.1659 34.6885C24.181 34.6649 24.2018 34.6454 24.2263 34.6319C24.2509 34.6184 24.2784 34.6113 24.3064 34.6112H25.5749C25.6082 34.6113 25.6408 34.6213 25.6684 34.6399C25.696 34.6585 25.7175 34.6849 25.7301 34.7158L27.1985 38.2615L28.7113 34.7141C28.7241 34.6837 28.7456 34.6577 28.7731 34.6393C28.8006 34.621 28.8329 34.6112 28.8659 34.6111H30.038C30.0661 34.6111 30.0936 34.6183 30.1182 34.6318C30.1427 34.6453 30.1635 34.6647 30.1786 34.6883C30.1939 34.712 30.2032 34.739 30.2057 34.7671C30.2082 34.7951 30.2037 34.8234 30.1927 34.8493L27.9567 40.129C27.9438 40.1594 27.9224 40.1854 27.8949 40.2038C27.8674 40.2221 27.8351 40.2319 27.8021 40.232L26.5424 40.2322ZM10.4214 40.2322C10.3765 40.2319 10.3336 40.2138 10.302 40.1819C10.2704 40.15 10.2528 40.1069 10.253 40.062L10.2445 36.0882L8.30973 39.3583C8.29498 39.3835 8.27389 39.4044 8.24856 39.419C8.22323 39.4335 8.19454 39.4411 8.16534 39.4412H7.59859C7.56957 39.4411 7.54105 39.4336 7.51582 39.4192C7.4906 39.4049 7.46954 39.3842 7.45472 39.3592L5.5216 36.1415V40.0617C5.52173 40.084 5.51749 40.106 5.5091 40.1266C5.50071 40.1472 5.48835 40.166 5.47272 40.1818C5.45708 40.1976 5.43849 40.2102 5.41799 40.2189C5.39749 40.2275 5.37549 40.232 5.35325 40.2322H4.14247C4.12023 40.232 4.09823 40.2275 4.07773 40.2189C4.05723 40.2102 4.03863 40.1976 4.023 40.1818C4.00737 40.166 3.995 40.1472 3.98662 40.1266C3.97823 40.106 3.97398 40.084 3.97412 40.0617V33.1407C3.97398 33.1185 3.97823 33.0964 3.98662 33.0758C3.995 33.0552 4.00737 33.0365 4.023 33.0207C4.03863 33.0048 4.05723 32.9922 4.07773 32.9836C4.09823 32.975 4.12023 32.9705 4.14247 32.9703H5.18722C5.21642 32.9703 5.2451 32.978 5.27043 32.9925C5.29576 33.007 5.31685 33.0279 5.33161 33.0531L7.90039 37.3939L10.4223 33.0543C10.437 33.0288 10.4581 33.0076 10.4836 32.9928C10.5091 32.9781 10.538 32.9703 10.5674 32.9703H11.6123C11.6572 32.9706 11.7002 32.9887 11.7317 33.0206C11.7633 33.0525 11.7809 33.0957 11.7807 33.1406L11.7905 40.0615C11.7906 40.1066 11.7729 40.15 11.7413 40.1822C11.7257 40.198 11.7072 40.2105 11.6867 40.2191C11.6662 40.2277 11.6443 40.2321 11.6221 40.2322H10.4214Z" fill="var(--fill-0, white)" id="União 11"></path></g><defs><clipPath id="clip0_43_84"><rect fill="white" height="42.2198" width="55.3941"></rect></clipPath></defs></svg>