<svg width="56" height="44" viewBox="0 0 56 44" fill="none" xmlns="http://www.w3.org/2000/svg">
<path d="M4.02216 31.4845C3.70793 31.1808 3.53355 30.8248 3.53736 29.9168L3.53984 24.6746C3.53272 24.25 3.7584 23.8983 4.1433 23.8146C6.10799 23.4721 8.20601 24.169 9.69872 25.6119C11.1717 27.0357 11.943 29.225 11.7041 31.0836C11.6878 31.3024 11.5877 31.5064 11.4246 31.6532C11.2616 31.7999 11.0481 31.878 10.8288 31.8712L5.61329 31.883C4.64734 31.8989 4.33639 31.7882 4.02216 31.4845Z" fill="#8044F3"/>
<path d="M3.45976 19.6862L3.42267 16.4008C3.43347 15.9311 3.70899 15.5698 4.15895 15.5246C8.05702 15.0828 12.535 16.7156 15.7612 19.8341C18.9682 22.9341 20.7896 27.2159 20.4609 31.1079C20.4615 31.2151 20.44 31.3213 20.3978 31.4199C20.3556 31.5184 20.2935 31.6072 20.2155 31.6808C20.1375 31.7543 20.0451 31.811 19.9442 31.8473C19.8433 31.8836 19.736 31.8987 19.629 31.8917L16.3539 31.8901C15.7528 31.9003 15.3713 31.5316 15.3791 30.912C15.4175 29.5194 15.1588 28.1346 14.6201 26.8499C14.0815 25.5652 13.2752 24.4099 12.2551 23.4612C10.2684 21.467 7.28439 20.429 4.50842 20.626C3.83335 20.6748 3.46987 20.2869 3.45976 19.6862Z" fill="#8044F3"/>
<path d="M3.54148 10.3163L3.529 7.32152C3.52053 6.82248 3.8022 6.45287 4.29938 6.36737C10.2779 5.65184 17.17 8.633 22.1473 13.4442C27.1053 18.2366 30.285 24.9911 29.7724 30.9901C29.7236 31.5092 29.364 31.8035 28.8648 31.8118L25.89 31.8815C25.3144 31.8913 24.8856 31.5147 24.8758 30.9388C25.0151 25.5606 22.877 20.6243 18.8951 16.7753C14.9132 12.9263 9.92741 11.0143 4.5753 11.2778C3.94226 11.3078 3.49337 10.8739 3.54148 10.3163Z" fill="#FFBE0C"/>
<path d="M51.6986 6.52438C52.0129 6.82812 52.1872 7.18406 52.1834 8.09204L52.1809 13.3342C52.188 13.7588 51.9622 14.1106 51.5774 14.1942C49.6127 14.5367 47.5147 13.8398 46.0221 12.397C44.549 10.9731 43.7777 8.78382 44.0166 6.92522C44.0329 6.70643 44.133 6.50238 44.2961 6.35563C44.4591 6.20888 44.6726 6.13078 44.8919 6.13763L50.1074 6.1258C51.0734 6.10986 51.3843 6.22054 51.6986 6.52438Z" fill="#F70368"/>
<path d="M52.2609 18.3227L52.298 21.608C52.2872 22.0776 52.0117 22.439 51.5618 22.4842C47.6637 22.9259 43.1857 21.2932 39.9595 18.1747C36.7525 15.0747 34.9316 10.7933 35.2598 6.90093C35.2592 6.79371 35.2807 6.6875 35.3229 6.58893C35.3651 6.49036 35.4272 6.40154 35.5052 6.328C35.5833 6.25447 35.6756 6.19779 35.7765 6.1615C35.8774 6.12522 35.9847 6.1101 36.0917 6.11709L39.3669 6.1187C39.9679 6.1085 40.3494 6.47724 40.3417 7.09679C40.3032 8.48936 40.5619 9.87414 41.1006 11.1589C41.6392 12.4436 42.4455 13.5989 43.4656 14.5476C45.4523 16.5418 48.4366 17.5802 51.2124 17.3829C51.8874 17.334 52.2508 17.7219 52.2609 18.3227Z" fill="#F70368"/>
<path d="M52.1802 27.6934L52.1927 30.6882C52.2012 31.1873 51.9195 31.5569 51.4223 31.6424C45.4438 32.3579 38.5518 29.3769 33.5744 24.5656C28.6164 19.7731 25.4367 13.0187 25.9494 7.01976C25.9981 6.50062 26.3578 6.20639 26.8569 6.19801L29.8317 6.12839C30.4074 6.11853 30.8361 6.4952 30.846 7.07101C30.7066 12.4492 32.8446 17.3854 36.8266 21.2344C40.8085 25.0835 45.7943 26.9955 51.1464 26.7319C51.779 26.7024 52.2283 27.1359 52.1802 27.6934Z" fill="#FFBE0C"/>
<path d="M46.3999 42.4024C46.3687 42.3763 46.3478 42.34 46.3409 42.2999C46.334 42.2598 46.3415 42.2186 46.3621 42.1835L46.9089 41.2541C46.9211 41.2331 46.9379 41.215 46.9579 41.2011C46.9779 41.1872 47.0007 41.1778 47.0247 41.1736C47.0487 41.1695 47.0733 41.1706 47.0968 41.1769C47.1204 41.1832 47.1422 41.1946 47.1609 41.2102C47.5901 41.5709 48.3029 41.8038 48.9771 41.8038C49.9701 41.8038 50.4335 41.3948 50.4667 40.4814C50.0092 40.8137 49.4544 40.9848 48.8892 40.9682C47.2641 40.9682 46.0845 39.8195 46.0845 38.2375C46.0845 36.6661 47.264 35.5261 48.8892 35.5261C49.4798 35.5049 50.0592 35.6908 50.5273 36.0515V35.7553C50.5271 35.733 50.5314 35.711 50.5398 35.6904C50.5482 35.6698 50.5605 35.651 50.5762 35.6352C50.5918 35.6194 50.6104 35.6068 50.6309 35.5982C50.6514 35.5895 50.6734 35.585 50.6956 35.5849H51.8576C51.8798 35.585 51.9018 35.5895 51.9223 35.5982C51.9428 35.6068 51.9614 35.6194 51.9771 35.6352C51.9927 35.651 52.0051 35.6698 52.0134 35.6904C52.0218 35.711 52.0261 35.733 52.0259 35.7553V40.2339C52.0259 42.197 51.0232 43.1924 49.0455 43.1924C47.9849 43.1925 46.9959 42.8972 46.3999 42.4024ZM47.6514 38.2367C47.6514 39.027 48.2367 39.579 49.0746 39.579C49.9068 39.579 50.4881 39.0271 50.4881 38.2367C50.4881 37.4581 49.9068 36.9143 49.0746 36.9143C48.2233 36.9143 47.6514 37.4457 47.6514 38.2367ZM40.382 39.522C40.382 38.8712 40.6855 37.7795 42.718 37.7795H43.8945C43.8598 37.192 43.4808 36.8944 42.7668 36.8944C42.235 36.8876 41.7161 37.0583 41.2921 37.3795C41.273 37.3955 41.2505 37.407 41.2263 37.4132C41.2021 37.4193 41.1768 37.42 41.1523 37.4152C41.1279 37.4103 41.1048 37.4001 41.0848 37.3851C41.0648 37.3702 41.0483 37.351 41.0367 37.3289L40.5583 36.4293C40.5394 36.3937 40.5335 36.3527 40.5418 36.3132C40.5501 36.2738 40.572 36.2385 40.6037 36.2136C41.1713 35.7698 41.9916 35.5255 42.9133 35.5255C44.552 35.5255 45.4544 36.3831 45.4544 37.9403V41.0348C45.4545 41.057 45.4503 41.0791 45.4419 41.0997C45.4335 41.1203 45.4211 41.139 45.4055 41.1549C45.3899 41.1707 45.3713 41.1833 45.3508 41.1919C45.3303 41.2005 45.3083 41.2051 45.286 41.2052H44.1339C44.1116 41.2051 44.0896 41.2005 44.0691 41.1919C44.0486 41.1833 44.03 41.1707 44.0144 41.1549C43.9988 41.139 43.9864 41.1203 43.978 41.0997C43.9696 41.0791 43.9654 41.057 43.9655 41.0348V40.83C43.6112 41.1191 43.1044 41.2745 42.4934 41.2745C41.2306 41.2744 40.382 40.5702 40.382 39.522ZM41.9197 39.4725C41.9197 39.8239 42.2288 40.0337 42.7473 40.0337C43.2944 40.0337 43.7218 39.779 43.8971 39.351V38.941H42.8059C41.9197 38.941 41.9197 39.3134 41.9197 39.4725ZM30.0025 38.3949C30.0025 36.7321 31.2067 35.5252 32.8659 35.5252C34.5173 35.5252 35.6706 36.7175 35.6706 38.4245C35.6706 38.5276 35.6607 38.6812 35.6506 38.8045C35.6473 38.8468 35.6283 38.8864 35.5973 38.9153C35.5663 38.9443 35.5255 38.9605 35.4831 38.9609H31.6096C31.807 39.544 32.3423 39.8854 33.0806 39.8854C33.3213 39.8963 33.5615 39.8553 33.785 39.7652C34.0084 39.6752 34.21 39.5382 34.3759 39.3635C34.3921 39.3467 34.4116 39.3335 34.4332 39.3247C34.4547 39.3159 34.4779 39.3117 34.5012 39.3124C34.5245 39.313 34.5475 39.3185 34.5685 39.3286C34.5895 39.3386 34.6083 39.3529 34.6235 39.3706L35.2777 40.1318C35.304 40.1627 35.3187 40.2018 35.319 40.2424C35.3193 40.2829 35.3053 40.3223 35.2795 40.3535C34.7785 40.956 34.008 41.2744 33.0511 41.2744C31.2562 41.2744 30.0025 40.0904 30.0025 38.3949ZM31.5906 37.7993H34.1357C33.9837 37.2197 33.5031 36.8549 32.8654 36.8549C32.5773 36.8446 32.2943 36.9324 32.0627 37.104C31.8311 37.2756 31.6646 37.5207 31.5906 37.7993ZM18.7833 38.3949C18.7833 36.7321 20.0198 35.5252 21.7247 35.5252C23.4347 35.5252 24.6759 36.732 24.6759 38.3949C24.6759 40.0633 23.4347 41.2744 21.7247 41.2744C20.0203 41.2744 18.7833 40.0633 18.7833 38.3949ZM20.3503 38.3949C20.3503 39.2806 20.9026 39.8762 21.7247 39.8762C22.5526 39.8762 23.1088 39.2811 23.1088 38.3949C23.1088 37.5087 22.5525 36.9136 21.7247 36.9136C20.9026 36.9143 20.3503 37.5092 20.3503 38.3949ZM12.7001 38.3949C12.7001 36.7321 13.9367 35.5252 15.6416 35.5252C17.3516 35.5252 18.5928 36.732 18.5928 38.3949C18.5928 40.0633 17.3516 41.2744 15.6416 41.2744C13.9371 41.2744 12.7001 40.0633 12.7001 38.3949ZM14.2672 38.3949C14.2672 39.2806 14.8195 39.8762 15.6416 39.8762C16.4695 39.8762 17.0257 39.2811 17.0257 38.3949C17.0257 37.5087 16.4694 36.9136 15.6416 36.9136C14.8194 36.9143 14.2672 37.5092 14.2672 38.3949ZM37.0352 41.2052C37.013 41.2051 36.991 41.2005 36.9705 41.1919C36.95 41.1833 36.9314 41.1707 36.9158 41.1549C36.9001 41.139 36.8878 41.1203 36.8794 41.0997C36.871 41.0791 36.8667 41.057 36.8669 41.0348V35.3718H34.7699C34.7477 35.3717 34.7257 35.3672 34.7052 35.3585C34.6847 35.3499 34.6661 35.3373 34.6504 35.3215C34.6348 35.3057 34.6224 35.2869 34.6141 35.2663C34.6057 35.2457 34.6014 35.2237 34.6016 35.2014V34.1138C34.6014 34.0915 34.6057 34.0695 34.6141 34.0489C34.6224 34.0283 34.6348 34.0095 34.6504 33.9937C34.6661 33.9779 34.6847 33.9653 34.7052 33.9566C34.7257 33.948 34.7477 33.9435 34.7699 33.9434H40.5699C40.5922 33.9435 40.6142 33.948 40.6347 33.9566C40.6552 33.9653 40.6738 33.9779 40.6894 33.9937C40.705 34.0095 40.7174 34.0283 40.7258 34.0489C40.7342 34.0695 40.7384 34.0915 40.7383 34.1138V35.2014C40.7384 35.2237 40.7342 35.2457 40.7258 35.2663C40.7174 35.2869 40.705 35.3057 40.6894 35.3215C40.6738 35.3373 40.6552 35.3499 40.6347 35.3585C40.6142 35.3672 40.5922 35.3717 40.5699 35.3718H38.473V41.0348C38.4731 41.057 38.4688 41.0791 38.4605 41.0997C38.4521 41.1203 38.4397 41.139 38.4241 41.1549C38.4084 41.1707 38.3898 41.1833 38.3693 41.1919C38.3488 41.2005 38.3268 41.2051 38.3046 41.2052H37.0352ZM26.705 41.2052C26.6719 41.2051 26.6397 41.1952 26.6122 41.1769C26.5847 41.1586 26.5632 41.1326 26.5504 41.1021L24.3143 35.8225C24.3033 35.7966 24.2989 35.7683 24.3014 35.7402C24.3038 35.7122 24.3132 35.6851 24.3285 35.6615C24.3436 35.6379 24.3644 35.6184 24.3889 35.6049C24.4135 35.5914 24.441 35.5843 24.469 35.5842H25.7375C25.7708 35.5843 25.8034 35.5943 25.831 35.613C25.8586 35.6316 25.8801 35.658 25.8927 35.6888L27.3611 39.2346L28.8739 35.6871C28.8868 35.6567 28.9082 35.6307 28.9357 35.6124C28.9632 35.594 28.9955 35.5842 29.0285 35.5841H30.2006C30.2287 35.5842 30.2562 35.5913 30.2808 35.6048C30.3053 35.6183 30.3261 35.6378 30.3412 35.6614C30.3565 35.685 30.3658 35.712 30.3683 35.7401C30.3708 35.7682 30.3663 35.7964 30.3553 35.8224L28.1193 41.102C28.1064 41.1325 28.085 41.1585 28.0575 41.1768C28.03 41.1951 27.9977 41.2049 27.9647 41.2051L26.705 41.2052ZM10.584 41.2052C10.5391 41.2049 10.4962 41.1868 10.4646 41.1549C10.433 41.123 10.4154 41.0799 10.4156 41.035L10.4071 37.0612L8.47234 40.3314C8.45758 40.3566 8.43649 40.3775 8.41116 40.392C8.38583 40.4065 8.35714 40.4142 8.32794 40.4142H7.7612C7.73217 40.4142 7.70365 40.4066 7.67843 40.3923C7.6532 40.3779 7.63215 40.3572 7.61732 40.3323L5.6842 37.1146V41.0348C5.68433 41.057 5.68009 41.0791 5.6717 41.0997C5.66331 41.1203 5.65095 41.139 5.63532 41.1549C5.61969 41.1707 5.60109 41.1833 5.58059 41.1919C5.56009 41.2005 5.53809 41.2051 5.51585 41.2052H4.30507C4.28283 41.2051 4.26083 41.2005 4.24033 41.1919C4.21983 41.1833 4.20124 41.1707 4.1856 41.1549C4.16997 41.139 4.15761 41.1203 4.14922 41.0997C4.14083 41.0791 4.13659 41.057 4.13672 41.0348V34.1138C4.13659 34.0915 4.14083 34.0695 4.14922 34.0489C4.15761 34.0283 4.16997 34.0095 4.1856 33.9937C4.20124 33.9779 4.21983 33.9653 4.24033 33.9566C4.26083 33.948 4.28283 33.9435 4.30507 33.9434H5.34982C5.37902 33.9434 5.40771 33.951 5.43303 33.9656C5.45836 33.9801 5.47945 34.001 5.49421 34.0262L8.06299 38.3669L10.5849 34.0273C10.5996 34.0018 10.6207 33.9806 10.6462 33.9659C10.6717 33.9511 10.7006 33.9434 10.73 33.9434H11.7749C11.8198 33.9436 11.8628 33.9617 11.8943 33.9937C11.9259 34.0256 11.9435 34.0687 11.9433 34.1136L11.9531 41.0345C11.9532 41.0797 11.9355 41.123 11.9039 41.1552C11.8883 41.171 11.8698 41.1836 11.8493 41.1922C11.8288 41.2007 11.8069 41.2052 11.7847 41.2052H10.584Z" fill="white"/>
</svg>
